PathFileType  4	(X/Y/Z) C:\Users\antoi\Documents\MyRepositories\mobilecap\ResultsAnalysis
DataRate	CameraRate	NumFrames	NumMarkers	Units	OrigDataRate	OrigDataStartFrame	OrigNumFrames
100.0	100.0	6	51	mm	100.0	86	171
Frame#	Time	r_knee			r_shank_antsup			r_ankle			r_calc			r_5meta			r_toe			L_knee			L_shank_antsup			L_ankle			L_calc			L_5meta			L_toe			r_sh2			r_sh3			r_sh4			L_sh2			L_sh3			r_thigh1			r_thigh2			r_thigh3			r_thigh4			r_thigh5			L_thigh1			L_thigh2			L_thigh3			L_thigh4			r.ASIS			r.PSIS			L.ASIS			L.PSIS			C7			R_Shoulder			L_Shoulder			R_Sternum			L_Sternum			R_humerus			R_elbow_med			R_elbow_lat			R_forearm			R_wrist_radius			R_wrist_ulna			L_humerus			L_elbow_med			L_elbow_lat			L_forearm			L_wrist_radius			L_wrist_ulna			R_HJC			L_HJC			R_HJC_reg			L_HJC_reg			
		X1	Y1	Z1	X2	Y2	Z2	X3	Y3	Z3	X4	Y4	Z4	X5	Y5	Z5	X6	Y6	Z6	X7	Y7	Z7	X8	Y8	Z8	X9	Y9	Z9	X10	Y10	Z10	X11	Y11	Z11	X12	Y12	Z12	X13	Y13	Z13	X14	Y14	Z14	X15	Y15	Z15	X16	Y16	Z16	X17	Y17	Z17	X18	Y18	Z18	X19	Y19	Z19	X20	Y20	Z20	X21	Y21	Z21	X22	Y22	Z22	X23	Y23	Z23	X24	Y24	Z24	X25	Y25	Z25	X26	Y26	Z26	X27	Y27	Z27	X28	Y28	Z28	X29	Y29	Z29	X30	Y30	Z30	X31	Y31	Z31	X32	Y32	Z32	X33	Y33	Z33	X34	Y34	Z34	X35	Y35	Z35	X36	Y36	Z36	X37	Y37	Z37	X38	Y38	Z38	X39	Y39	Z39	X40	Y40	Z40	X41	Y41	Z41	X42	Y42	Z42	X43	Y43	Z43	X44	Y44	Z44	X45	Y45	Z45	X46	Y46	Z46	X47	Y47	Z47	X48	Y48	Z48	X49	Y49	Z49	X50	Y50	Z50	X51	Y51	Z51	

86	0.85000000	684.44353	591.19377	-58.29636	614.75529	451.51242	-75.67295	319.20042	231.62125	-119.99089	273.94851	275.43436	-181.69325	350.13682	81.43445	-123.08816	403.68953	82.40590	-167.21616	832.83015	597.49055	-379.07947	906.32604	412.44329	-350.06438	876.89854	100.53122	-331.84808	824.92771	72.09279	-265.07987	1028.79478	32.57431	-354.47661	1064.91007	72.79408	-298.65923	534.25787	371.67297	-94.08688	563.42115	492.53384	-37.77766	481.77235	415.63941	-46.71411	837.70446	406.25998	-403.86508	846.52016	290.69358	-380.71522	748.64338	877.00071	-30.17417	752.85852	765.63288	-25.35567	691.04179	742.17730	-34.08369	648.16400	874.73876	-80.74609	646.98844	757.30055	-68.87697	872.39563	896.70795	-396.65827	878.64971	762.02621	-390.54651	762.97106	895.61478	-405.18412	773.74280	756.93237	-409.06105	836.56971	1171.63857	-84.41918	660.14068	1200.63530	-187.02760	856.61679	1153.96010	-362.01668	664.99721	1200.54927	-278.74053	780.30778	1663.26696	-359.43081	840.22789	1654.75836	-173.18949	844.04682	1567.67524	-512.96120	900.62176	1566.05875	-298.57292	904.39348	1552.23142	-353.65192	733.48301	1440.83987	-31.87478	605.08483	1364.00353	-39.03120	628.17231	1400.02146	23.38217	671.68924	1201.86007	101.81451	683.08359	1109.70140	126.69995	653.41840	1120.51952	149.79534	827.27753	1266.71222	-520.18415	732.15758	1205.50750	-467.74406	753.68659	1188.95261	-538.71515	824.86958	994.94894	-538.18284	850.36163	919.86132	-520.31131	823.73076	919.11738	-543.66533	760.83925	1075.64976	-123.68960	767.26227	1068.64674	-320.92234	772.12073	1078.21694	-127.60894	781.86151	1078.04535	-311.41867	
87	0.86000000	703.03550	591.57953	-55.85407	630.99192	452.76773	-73.56628	331.47803	239.47109	-117.81201	287.59986	284.75503	-179.51151	358.21855	88.40214	-121.43743	412.43973	87.87490	-164.76085	837.59437	598.08926	-378.52219	909.48033	412.44504	-349.52108	877.47143	100.93800	-331.14382	825.12971	72.44142	-264.81753	1028.97337	32.48641	-354.50454	1065.26024	71.70407	-298.16017	549.22566	374.61548	-91.97752	581.10352	494.80943	-35.12508	498.26290	419.52600	-44.03236	840.70393	406.81838	-403.26687	848.58716	291.21897	-380.08866	762.48800	877.84325	-29.30939	768.84543	766.71376	-24.03213	707.34799	742.18797	-32.40591	661.92565	873.78355	-79.22269	662.91402	756.40780	-66.89279	880.39504	896.94360	-395.73930	885.36621	762.29855	-389.48117	771.17078	896.90006	-404.79944	780.32100	758.15496	-408.45728	845.32542	1173.74855	-83.80857	669.91111	1202.24992	-188.05625	867.47919	1154.90046	-361.05516	675.41958	1202.14464	-279.60239	792.01059	1663.42731	-363.25472	851.85793	1657.11636	-176.89161	855.50561	1565.94838	-515.48034	911.95321	1566.66973	-301.22872	915.67756	1552.22381	-356.11074	742.63484	1445.65429	-33.79393	613.14517	1370.39746	-40.67010	636.88957	1406.36151	21.59980	678.32148	1207.99387	100.68299	688.63094	1115.73624	125.81470	659.27458	1127.00372	149.01110	838.96434	1265.13461	-521.18533	744.09894	1203.87317	-468.46068	765.46263	1187.11918	-539.40113	838.12188	993.61670	-538.13420	864.24597	918.92778	-519.93954	837.52514	917.68641	-543.12998	769.85686	1077.61414	-123.30662	777.86928	1069.84179	-320.46199	781.48792	1079.63239	-127.36660	792.54365	1079.42143	-311.02653	
88	0.87000000	721.44161	592.21300	-53.62365	647.22069	454.36111	-71.48446	344.35679	246.99027	-115.64945	301.48505	293.25968	-177.38285	367.76329	95.30397	-119.38079	422.43045	93.50426	-162.13008	842.38487	598.70526	-378.02252	912.56709	412.44517	-348.99714	877.96027	101.29906	-330.57225	825.29493	72.79083	-264.64334	1029.10237	32.39181	-354.57694	1065.55702	70.73067	-297.77977	564.49782	377.83644	-89.80838	598.56405	497.40380	-32.77879	514.65454	423.61939	-41.62331	843.83843	407.40095	-402.87133	850.72769	291.76659	-379.67221	776.35447	878.80027	-28.43179	784.84356	767.90386	-22.81075	723.56291	742.38073	-30.73382	675.66248	872.95578	-77.58709	678.81318	755.67050	-64.91696	888.30288	897.24415	-394.55075	892.14072	762.66009	-388.25707	779.37699	898.10241	-404.44169	787.03277	759.37961	-407.91562	854.12912	1175.78189	-83.32123	679.56683	1203.78936	-188.87899	878.06219	1155.76719	-360.24205	685.61227	1203.61723	-280.27086	803.55862	1663.48350	-366.96139	863.19020	1659.23560	-180.45343	866.96837	1564.19076	-517.87064	923.11174	1567.14903	-303.71452	926.83222	1552.11123	-358.40284	751.57899	1450.20210	-35.66031	621.00894	1376.51326	-42.13713	645.45875	1412.42470	19.92866	684.94103	1213.88324	99.61768	694.20730	1121.53001	124.95225	665.24208	1133.23365	148.29146	850.53508	1263.53403	-522.13888	755.84743	1202.24920	-469.18540	777.06979	1185.29900	-540.08980	851.33741	992.34285	-538.00650	878.06273	918.08894	-519.45932	851.32033	916.25663	-542.42329	778.89894	1079.49415	-122.90947	788.21109	1070.95419	-319.98405	790.82845	1081.03619	-127.12078	802.97016	1080.69026	-310.64656	
89	0.88000000	739.59970	593.07910	-51.58579	663.52288	456.28225	-69.37875	357.79878	254.05066	-113.50146	315.57360	300.84208	-175.32166	378.78974	101.97109	-116.90022	433.69421	99.14028	-159.29851	847.24082	599.33345	-377.59570	915.61897	412.43930	-348.53783	878.38169	101.62373	-330.14585	825.43798	73.16435	-264.57761	1029.21448	32.25226	-354.67012	1065.83084	69.85536	-297.50329	580.01104	381.23519	-87.60306	615.76187	500.27508	-30.74326	530.88915	427.84724	-39.49571	847.10559	407.99870	-402.68286	852.94846	292.31965	-379.46667	790.17245	879.90984	-27.55953	800.71018	769.22136	-21.67158	739.59230	742.76082	-29.10013	689.32150	872.28019	-75.91818	694.59015	755.11710	-63.01182	896.20467	897.58901	-393.17051	898.98928	763.06500	-386.96127	787.65390	899.24794	-404.14624	793.93498	760.60907	-407.51313	862.99392	1177.73902	-82.95629	689.11923	1205.26917	-189.47480	888.38459	1156.56585	-359.59985	695.59942	1204.97823	-280.74022	814.93916	1663.45056	-370.55128	874.23872	1661.12358	-183.88017	878.39117	1562.40773	-520.14792	934.09404	1567.51101	-306.05202	937.84357	1551.90323	-360.55067	760.34542	1454.48200	-37.49851	628.73622	1382.31975	-43.50341	653.89045	1418.19383	18.31182	691.52482	1219.52479	98.61188	699.77052	1127.07970	124.13243	671.25818	1139.21771	147.64439	862.01074	1261.89752	-523.06231	767.42662	1200.61129	-469.91856	788.55356	1183.46190	-540.77722	864.52327	991.09939	-537.80437	891.81980	917.31073	-518.88251	865.11813	914.80964	-541.56077	787.98226	1081.29408	-122.49800	798.29588	1071.99468	-319.49286	800.13544	1082.43735	-126.88087	813.15880	1081.85209	-310.30278	
90	0.89000000	757.47054	594.15060	-49.71412	679.96644	458.47632	-67.22396	371.76082	260.55548	-111.38820	329.87841	307.44407	-173.37540	391.22241	108.27121	-113.98355	446.19574	104.62154	-156.21683	852.18135	599.96220	-377.22574	918.67923	412.42863	-348.13464	878.77360	101.93534	-329.83958	825.57225	73.59321	-264.61875	1029.34147	32.05603	-354.75402	1066.11851	69.04079	-297.29045	595.68726	384.68374	-85.40519	632.70027	503.34103	-28.99696	546.95532	432.09846	-37.63863	850.50337	408.60511	-402.65059	855.26812	292.86903	-379.42317	803.87674	881.18069	-26.72276	816.33611	770.67229	-20.60432	755.36029	743.32000	-27.52542	702.85379	871.77118	-74.29077	710.16997	754.76112	-61.23427	904.14708	897.94475	-391.68859	905.90021	763.46275	-385.66140	796.01808	900.35879	-403.92925	801.02357	761.82699	-407.27660	871.91072	1179.62278	-82.69239	698.58051	1206.69674	-189.86498	898.47538	1157.30005	-359.12018	705.41080	1206.23947	-281.03966	826.14818	1663.34691	-374.02325	885.03422	1662.79680	-187.17819	889.72344	1560.60861	-522.32257	944.90241	1567.77579	-308.26648	948.69940	1551.61669	-362.57883	768.97497	1458.50549	-39.32520	636.39868	1387.79504	-44.84480	662.20632	1423.66135	16.69588	698.06416	1224.92370	97.65638	705.30609	1132.39854	123.37591	677.27690	1144.97183	147.06850	873.40842	1260.22345	-523.96160	778.86360	1198.94147	-470.64981	799.95691	1181.58705	-541.45311	877.68336	989.86705	-537.53804	905.54482	916.56613	-518.24319	878.91680	913.35591	-540.59036	797.10056	1083.01920	-122.07457	808.15154	1072.96968	-318.99350	809.40152	1083.83120	-126.64507	823.13629	1082.91111	-310.00183	
91	0.90000000	775.03596	595.39047	-47.98307	696.57861	460.84816	-65.02815	386.20145	266.44097	-109.34316	344.44128	313.04500	-171.61123	404.91190	114.11261	-110.62336	459.84390	109.78998	-152.82417	857.20895	600.58111	-376.87536	921.79577	412.42150	-347.73461	879.18257	102.26235	-329.60456	825.71207	74.09603	-264.73943	1029.50384	31.82205	-354.80356	1066.44858	68.24638	-297.09377	611.46744	388.05046	-83.26157	649.41882	506.48809	-27.49769	562.88502	436.23643	-36.02499	854.03590	409.22022	-402.68659	857.71272	293.41851	-379.46000	817.42385	882.59422	-25.95471	831.64992	772.24979	-19.60055	770.81485	744.03810	-26.01572	716.22020	871.43073	-72.76941	725.50654	754.59861	-59.62715	912.14042	898.27979	-390.18860	912.85084	763.81620	-384.39534	804.44271	901.44747	-403.78167	808.24636	763.00855	-407.17959	880.85428	1181.43434	-82.49864	707.95871	1208.07252	-190.09957	908.36536	1157.97537	-358.77201	715.07419	1207.41293	-281.21904	837.18741	1663.18878	-377.37546	895.62101	1664.28174	-190.35391	900.91038	1558.80553	-524.40035	955.54331	1567.96483	-310.38431	959.39045	1551.27283	-364.51321	777.51034	1462.29020	-41.14976	644.06546	1392.92678	-46.23019	670.43572	1428.82753	15.03457	704.56547	1230.09018	96.74266	710.83988	1137.51400	122.70580	683.27171	1150.51481	146.55493	884.73950	1258.52330	-524.82971	790.18777	1197.23086	-471.35850	811.31371	1179.66758	-542.10165	890.81927	988.63789	-537.22142	919.27539	915.83942	-517.58564	892.70800	911.92425	-539.57833	806.22953	1084.67298	-121.64600	817.81455	1073.88427	-318.49357	818.61674	1085.20441	-126.40789	832.93147	1083.87705	-309.73798	
